# xmcd
#
# Track frame offsets:
#	150
#	20322
#	42387
#	59372
#	75335
#	94902
#	111837
#	135005
#	154430
#	180200
#
# Disc length: 2711 seconds
#
# Revision: 3
# Processed by: cddbd v1.5PL3 Copyright (c) Steve Scherf et al.
# Submitted via: MusicWizard 7.0.2
#
DISCID=6f0a950a
DTITLE=Zakiya Hooker - Flavors Of The Blues
DYEAR=1996
DGENRE=Blues
TTITLE0=Stones In My Passway
TTITLE1=New Orleans Rain
TTITLE2=Baby You Busted
TTITLE3=Look Me Up
TTITLE4=Protect Me From The Blues
TTITLE5=Art Of Divorce
TTITLE6=Receipt To Sing The Blues
TTITLE7=Let's Do Something
TTITLE8=Drowning In Your Love
TTITLE9=Bit By Love (Hard Times)
EXTD=
EXTT0=
EXTT1=
EXTT2=
EXTT3=
EXTT4=
EXTT5=
EXTT6=
EXTT7=
EXTT8=
EXTT9=
PLAYORDER=
